HIERARCHY
ROOT Hips
{
	OFFSET	0.00	0.00	0.00
	CHANNELS 6 Xposition Yposition Zposition Zrotation Xrotation Yrotation
	JOINT LeftUpLeg
	{
		OFFSET	 0.126116	-0.065224	 0.014019
		CHANNELS 3 Zrotation Xrotation Yrotation
		JOINT LeftLeg
		{
			OFFSET	 0.000000	 0.569914	 0.000000
			CHANNELS 3 Zrotation Xrotation Yrotation
			JOINT LeftFoot
			{
				OFFSET	 0.000000	 0.544423	 0.000000
				CHANNELS 3 Zrotation Xrotation Yrotation
				JOINT LeftToeBase
				{
					OFFSET	 0.000000	 0.207117	 0.000000
					CHANNELS 3 Zrotation Xrotation Yrotation
					End Site
					{
						OFFSET	 0.000000	 0.207117	 0.000000
					}
				}
			}
		}
	}
	JOINT RightUpLeg
	{
		OFFSET	-0.124023	-0.065224	 0.008373
		CHANNELS 3 Zrotation Xrotation Yrotation
		JOINT RightLeg
		{
			OFFSET	 0.000000	 0.570047	 0.000000
			CHANNELS 3 Zrotation Xrotation Yrotation
			JOINT RightFoot
			{
				OFFSET	 0.000000	 0.544354	 0.000000
				CHANNELS 3 Zrotation Xrotation Yrotation
				JOINT RightToeBase
				{
					OFFSET	 0.000000	 0.207540	 0.000000
					CHANNELS 3 Zrotation Xrotation Yrotation
					End Site
					{
						OFFSET	 0.000000	 0.207540	 0.000000
					}
				}
			}
		}
	}
	JOINT Spine
	{
		OFFSET	 0.000184	 0.117403	 0.007763
		CHANNELS 3 Zrotation Xrotation Yrotation
		JOINT Spine1
		{
			OFFSET	 0.000000	 0.137269	 0.000000
			CHANNELS 3 Zrotation Xrotation Yrotation
			JOINT Spine2
			{
				OFFSET	 0.000000	 0.156879	 0.000000
				CHANNELS 3 Zrotation Xrotation Yrotation
				JOINT LeftShoulder
				{
					OFFSET	 0.080501	 0.160143	 0.002496
					CHANNELS 3 Zrotation Xrotation Yrotation
					JOINT LeftArm
					{
						OFFSET	 0.000000	 0.164363	 0.000000
						CHANNELS 3 Zrotation Xrotation Yrotation
						JOINT LeftForeArm
						{
							OFFSET	 0.000000	 0.364576	 0.000000
							CHANNELS 3 Zrotation Xrotation Yrotation
							JOINT LeftHand
							{
								OFFSET	 0.000000	 0.360812	 0.000000
								CHANNELS 3 Zrotation Xrotation Yrotation
								JOINT LeftHandIndex1
								{
									OFFSET	 0.000000	 0.086006	 0.000000
									CHANNELS 3 Zrotation Xrotation Yrotation
									JOINT LeftHandIndex2
									{
										OFFSET	 0.000000	 0.047237	 0.000000
										CHANNELS 3 Zrotation Xrotation Yrotation
										JOINT LeftHandIndex3
										{
											OFFSET	-0.004284	 0.038165	 0.000551
											CHANNELS 3 Zrotation Xrotation Yrotation
											End Site
											{
												OFFSET	-0.004284	 0.038165	 0.000551
											}
										}
									}
								}
							}
						}
					}
				}
				JOINT Neck
				{
					OFFSET	 0.000000	 0.176489	 0.000000
					CHANNELS 3 Zrotation Xrotation Yrotation
					JOINT Head
					{
						OFFSET	 0.000000	 0.077941	 0.001747
						CHANNELS 3 Zrotation Xrotation Yrotation
						End Site
						{
							OFFSET	 0.000000	 0.077941	 0.001747
						}
					}
				}
				JOINT RightShoulder
				{
					OFFSET	-0.080363	 0.159706	-0.000306
					CHANNELS 3 Zrotation Xrotation Yrotation
					JOINT RightArm
					{
						OFFSET	 0.000000	 0.164196	 0.000000
						CHANNELS 3 Zrotation Xrotation Yrotation
						JOINT RightForeArm
						{
							OFFSET	 0.000000	 0.365611	 0.000000
							CHANNELS 3 Zrotation Xrotation Yrotation
							JOINT RightHand
							{
								OFFSET	 0.000000	 0.360648	 0.000000
								CHANNELS 3 Zrotation Xrotation Yrotation
								JOINT RightHandIndex1
								{
									OFFSET	 0.000000	 0.069977	 0.000000
									CHANNELS 3 Zrotation Xrotation Yrotation
									JOINT RightHandIndex2
									{
										OFFSET	 0.000000	 0.052305	 0.000000
										CHANNELS 3 Zrotation Xrotation Yrotation
										JOINT RightHandIndex3
										{
											OFFSET	 0.009002	 0.042196	 0.000782
											CHANNELS 3 Zrotation Xrotation Yrotation
											End Site
											{
												OFFSET	 0.009002	 0.042196	 0.000782
											}
										}
									}
								}
							}
						}
					}
				}
			}
		}
	}
}
MOTION
Frames:    7
Frame Time: 0.03333334
 0.001406	 1.271279	 0.063397	 0.015593	-0.011744	 179.999900	-176.974600	 1.274633	-10.278160	 2.283721	-10.652620	-0.044515	-5.347144	 70.150440	 4.728506	 1.292262	 28.425850	-2.713146	 176.978900	 1.737261	 10.295540	-2.317936	-11.129250	 0.040380	 5.408715	 70.261570	-4.819631	-1.288183	 28.361890	 2.710176	-0.089620	 2.704450	-0.000518	 0.008086	 3.690146	-0.000993	-0.003820	-4.717752	-0.004157	-101.478000	 1.740670	 90.353390	 43.643980	 56.290450	-37.002520	 2.079416	 4.342002	 1.376255	-9.303480	 4.750492	-1.422847	-6.580301	 5.266122	 0.000000	 0.000000	 0.000000	 0.000000	 0.000000	 0.000000	 0.000000	 0.089846	-3.783161	 0.005928	 0.000015	 1.263154	-0.001370	 101.796200	-0.213312	-89.955450	-6.104944	 64.687420	-2.710968	-5.096401	 7.760802	 1.627525	-14.872670	-1.364845	 2.394564	 15.208500	 5.323790	 0.000000	 0.000000	 0.000000	 0.000000	 0.000000	 0.000000	 0.000000
 0.001444	 1.271338	 0.063721	 0.068304	-0.195762	 179.993600	-176.618600	 1.554579	-13.475160	 2.314372	-10.792170	-0.038802	-5.274592	 70.015500	 4.659865	 1.292262	 28.425850	-2.713146	 176.714900	 1.965303	 13.493440	-2.325485	-11.164570	 0.038925	 5.330812	 70.083720	-4.769400	-1.288183	 28.361890	 2.710176	-0.054502	 2.517752	 0.744510	-0.016149	 3.668579	-0.000596	 0.008002	-4.707703	 0.005905	-101.478000	 1.740666	 90.353380	 42.528440	 56.277990	-35.968830	 2.303661	 4.285719	 1.914851	-8.781229	 5.165469	-1.433722	-6.580301	 5.266122	 0.000000	 0.000000	 0.000000	 0.000000	 0.000000	 0.000000	 0.000000	 0.089846	-3.783161	 0.005928	 0.000015	 1.263154	-0.001370	 101.796200	-0.213310	-89.955440	-7.967434	 65.930050	-1.020938	-3.005779	 4.206094	 0.815153	-16.600850	 0.908500	 2.754046	 15.208500	 5.323790	 0.000000	 0.000000	 0.000000	 0.000000	 0.000000	 0.000000	 0.000000
 0.001498	 1.271466	 0.064094	 0.116285	-0.409655	 179.985800	-176.190400	 1.808770	-17.440740	 2.328997	-10.858730	-0.036059	-5.141237	 69.798810	 4.560461	 1.292262	 28.425850	-2.713146	 176.371000	 2.187427	 17.460690	-2.326179	-11.167820	 0.038791	 5.210762	 69.848130	-4.705389	-1.288183	 28.361890	 2.710176	-0.124509	 2.300547	 3.739825	-0.035792	 3.639852	-0.000284	 0.017801	-4.694319	 0.018027	-101.478000	 1.740681	 90.353380	 41.228140	 56.265400	-34.765060	 3.288583	 4.236017	 4.070411	-8.176395	 5.562479	-1.443827	-6.580301	 5.266122	 0.000000	 0.000000	 0.000000	 0.000000	 0.000000	 0.000000	 0.000000	 0.089846	-3.783161	 0.005928	 0.000015	 1.263154	-0.001370	 101.796200	-0.213303	-89.955460	-6.405935	 65.219860	-2.436568	-3.943026	 4.057890	-1.471099	-18.510900	 1.669701	 1.862296	 15.208500	 5.323790	 0.000000	 0.000000	 0.000000	 0.000000	 0.000000	 0.000000	 0.000000
 0.001553	 1.271576	 0.064369	 0.139350	-0.567834	 179.980200	-175.866000	 1.954965	-20.608470	 2.330101	-10.863750	-0.035853	-5.013995	 69.605880	 4.479370	 1.292262	 28.425850	-2.713146	 176.083100	 2.334903	 20.628370	-2.328349	-11.177960	 0.038364	 5.100480	 69.669560	-4.652052	-1.288183	 28.361890	 2.710176	-0.213733	 2.135487	 7.013796	-0.072660	 3.618010	 0.000296	 0.035467	-4.684144	 0.027003	-101.478000	 1.740664	 90.353380	 40.243690	 56.251580	-33.855590	 4.382432	 4.205631	 6.438190	-7.722150	 5.816642	-1.448139	-6.580301	 5.266122	 0.000000	 0.000000	 0.000000	 0.000000	 0.000000	 0.000000	 0.000000	 0.089846	-3.783161	 0.005928	 0.000015	 1.263154	-0.001370	 101.796200	-0.213314	-89.955470	-4.891991	 64.619020	-3.785551	-4.995247	 3.934640	-3.984780	-20.542560	 2.276390	 0.828751	 15.208500	 5.323790	 0.000000	 0.000000	 0.000000	 0.000000	 0.000000	 0.000000	 0.000000
 0.001586	 1.271636	 0.064502	 0.146067	-0.644253	 179.977400	-175.441300	 1.954319	-25.104260	 2.326733	-10.848420	-0.036484	-4.849659	 69.346930	 4.401326	 1.292262	 28.425850	-2.713146	 175.657800	 2.340679	 25.125250	-2.329699	-11.184280	 0.038106	 4.938455	 69.441060	-4.586886	-1.288183	 28.361890	 2.710176	 1.024678	 1.798375	-28.153330	-0.098597	 3.607888	 0.000699	 0.047789	-4.679539	 0.031343	-101.478000	 1.740685	 90.353400	 38.251690	 55.275960	-31.915770	 12.221190	 4.298925	-21.750000	-7.372036	 6.568909	-1.522403	-6.580301	 5.266122	 0.000000	 0.000000	 0.000000	 0.000000	 0.000000	 0.000000	 0.000000	 0.089846	-3.783161	 0.005928	 0.000015	 1.263154	-0.001370	 101.796200	-0.213309	-89.955470	-4.535625	 53.185640	-2.957810	-33.820330	 28.544550	 34.128720	-13.804840	-13.088040	-13.304440	 15.208500	 5.323790	 0.000000	 0.000000	 0.000000	 0.000000	 0.000000	 0.000000	 0.000000
 0.001572	 1.271610	 0.064446	 0.143567	-0.611454	 179.978500	-175.443600	 1.920892	-25.103120	 2.328541	-10.856650	-0.036148	-4.860677	 69.355640	 4.411085	 1.292262	 28.425850	-2.713146	 175.656600	 2.301560	 25.124630	-2.329099	-11.181480	 0.038222	 4.942162	 69.444460	-4.589931	-1.288183	 28.361890	 2.710176	 1.313604	 1.641961	-37.232530	-0.086841	 3.611892	 0.000516	 0.042225	-4.681302	 0.029672	-101.478000	 1.740663	 90.353390	 37.735480	 54.801720	-31.380680	 17.104300	 4.345127	-32.770620	-7.445739	 6.612838	-1.553851	-6.580301	 5.266122	 0.000000	 0.000000	 0.000000	 0.000000	 0.000000	 0.000000	 0.000000	 0.089846	-3.783161	 0.005928	 0.000015	 1.263154	-0.001370	 101.796200	-0.213308	-89.955460	-5.279447	 45.095250	-0.697744	-64.360980	 40.714290	 66.492920	-7.241951	-26.095790	-22.862850	 15.208500	 5.323790	 0.000000	 0.000000	 0.000000	 0.000000	 0.000000	 0.000000	 0.000000
 0.001559	 1.271588	 0.064397	 0.141013	-0.583756	 179.979200	-175.446300	 1.891851	-25.102190	 2.329737	-10.862090	-0.035923	-4.869049	 69.362300	 4.418460	 1.292262	 28.425850	-2.713146	 175.655100	 2.268698	 25.123970	-2.328670	-11.179470	 0.038303	 4.945706	 69.447530	-4.592927	-1.288183	 28.361890	 2.710176	 1.364807	 1.636067	-38.494290	-0.077505	 3.615363	 0.000371	 0.037802	-4.682958	 0.028383	-101.478000	 1.740671	 90.353400	 37.137290	 54.279690	-30.769810	 20.717040	 4.359822	-40.925090	-7.491345	 6.727078	-1.587662	-6.580301	 5.266122	 0.000000	 0.000000	 0.000000	 0.000000	 0.000000	 0.000000	 0.000000	 0.089846	-3.783161	 0.005928	 0.000015	 1.263154	-0.001370	 101.796200	-0.213326	-89.955440	-12.164970	 41.377560	 7.124192	-88.384040	 41.578320	 93.544690	 0.870073	-36.573940	-29.143290	 15.208500	 5.323790	 0.000000	 0.000000	 0.000000	 0.000000	 0.000000	 0.000000	 0.000000
